<?xml version="1.0" encoding="utf-8"?>
<!-- Generator: Adobe Illustrator 24.2.3, SVG Export Plug-In . SVG Version: 6.00 Build 0)  -->
<svg version="1.1" id="Layer_1" xmlns="http://www.w3.org/2000/svg" xmlns:xlink="http://www.w3.org/1999/xlink" x="0px" y="0px"
	 viewBox="0 0 160 90" style="enable-background:new 0 0 160 90;" xml:space="preserve">
<style type="text/css">
	.st0{clip-path:url(#SVGID_2_);fill:#FFFFFF;}
	.st1{clip-path:url(#SVGID_4_);fill:#FFFFFF;}
	.st2{clip-path:url(#SVGID_6_);fill:#FFFFFF;}
	.st3{clip-path:url(#SVGID_8_);fill:#FFFFFF;}
	.st4{clip-path:url(#SVGID_10_);fill:#FFFFFF;}
	.st5{clip-path:url(#SVGID_12_);fill:#FFFFFF;}
	.st6{clip-path:url(#SVGID_14_);fill:#FFFFFF;}
	.st7{clip-path:url(#SVGID_16_);fill:#FFFFFF;}
	.st8{clip-path:url(#SVGID_18_);fill:#FFFFFF;}
	.st9{clip-path:url(#SVGID_20_);fill:#FFFFFF;}
	.st10{clip-path:url(#SVGID_22_);fill:#FFFFFF;}
	.st11{clip-path:url(#SVGID_24_);fill:#FFFFFF;}
	.st12{clip-path:url(#SVGID_26_);fill:#FFFFFF;}
	.st13{clip-path:url(#SVGID_28_);fill:#FFFFFF;}
	.st14{clip-path:url(#SVGID_30_);fill:#FFFFFF;}
	.st15{clip-path:url(#SVGID_32_);fill:#FFFFFF;}
</style>
<g>
	<g>
		<g>
			<defs>
				<rect id="SVGID_1_" y="18.5" width="160" height="53"/>
			</defs>
			<use xlink:href="#SVGID_1_"  style="overflow:visible;fill:#FFFFFF;"/>
			<clipPath id="SVGID_2_">
				<use xlink:href="#SVGID_1_"  style="overflow:visible;"/>
			</clipPath>
			<path class="st0" d="M9.5,50.9v3.6c0,0.2-0.1,0.4-0.2,0.6L9,55.4l-2.9-2.9c-0.7-0.7-1.4-0.4-1.6-0.3c-0.2,0.1-0.9,0.5-0.9,1.4
				v8.7c0,0.9,0.7,1.3,0.9,1.4c0.2,0.1,1,0.3,1.6-0.3l6.5-6.5c0.3-0.3,0.4-0.7,0.4-1v-6.4c0-2.8,2.2-5,5-5h24.9c2.8,0,5,2.2,5,5
				v17.2c0,2.8-2.2,5-5,5H18c-2.8,0-5-2.2-5-5v-0.2l3.5-3.5v3.7c0,0.8,0.7,1.5,1.5,1.5h24.9c0.8,0,1.5-0.7,1.5-1.5V49.3
				c0-0.8-0.7-1.5-1.5-1.5H18c-0.8,0-1.5,0.7-1.5,1.5v4.6v1.8c0,1.3-0.5,2.6-1.5,3.5l-6.5,6.5C7,67.2,5,67.6,3,66.8
				c-1.8-0.7-3-2.5-3-4.6v-8.7c0-0.2,0-0.3,0-0.4c0.2-1.9,1.3-3.5,3.1-4.2c1.9-0.8,4-0.4,5.5,1.1L9.5,50.9z"/>
		</g>
		<g>
			<defs>
				<rect id="SVGID_3_" y="18.5" width="160" height="53"/>
			</defs>
			<use xlink:href="#SVGID_3_"  style="overflow:visible;fill:#FFFFFF;"/>
			<clipPath id="SVGID_4_">
				<use xlink:href="#SVGID_3_"  style="overflow:visible;"/>
			</clipPath>
			<path class="st1" d="M42,18.5c-4.3,0-7.2,2.2-9.4,4.8c0,0,1.1,1.5,2,3.1l0,0c2-2.7,4.1-4.4,7.4-4.4c4.2,0,7.6,3.4,7.6,7.6
				s-3.4,7.6-7.6,7.6c-4.8,0-7.3-4-10.1-8.5c-3-4.8-6.3-10.2-13.1-10.2c-6.1,0-11.1,5-11.1,11.1s5,11.1,11.1,11.1
				c2.5,0,5.8-0.6,9.4-4.8l0,0c0,0-1.1-1.5-2-3.1c-2.4,3.1-4.5,4.4-7.4,4.4c-4.2,0-7.6-3.4-7.6-7.6s3.4-7.6,7.6-7.6
				c4.8,0,7.3,4,10.1,8.5c3,4.8,6.3,10.2,13.1,10.2c6.1,0,11.1-5,11.1-11.1C53.2,23.5,48.2,18.5,42,18.5"/>
		</g>
		<g>
			<defs>
				<rect id="SVGID_5_" y="18.5" width="160" height="53"/>
			</defs>
			<use xlink:href="#SVGID_5_"  style="overflow:visible;fill:#FFFFFF;"/>
			<clipPath id="SVGID_6_">
				<use xlink:href="#SVGID_5_"  style="overflow:visible;"/>
			</clipPath>
			<polygon class="st2" points="67.7,28.8 62.5,28.8 62.5,25.7 76.4,25.7 76.4,28.8 71.2,28.8 71.2,41.8 67.7,41.8 			"/>
		</g>
		<g>
			<defs>
				<rect id="SVGID_7_" y="18.5" width="160" height="53"/>
			</defs>
			<use xlink:href="#SVGID_7_"  style="overflow:visible;fill:#FFFFFF;"/>
			<clipPath id="SVGID_8_">
				<use xlink:href="#SVGID_7_"  style="overflow:visible;"/>
			</clipPath>
			<path class="st3" d="M87.2,30.9h3.3v1.5l0,0c0.8-1.1,1.8-1.6,3.2-1.6c0.2,0,0.5,0,0.7,0.1V34c-0.3-0.1-0.6-0.1-0.9-0.1
				c-1.2,0-2.2,0.4-3,1.3v6.6h-3.4V30.9H87.2z"/>
		</g>
		<g>
			<defs>
				<rect id="SVGID_9_" y="18.5" width="160" height="53"/>
			</defs>
			<use xlink:href="#SVGID_9_"  style="overflow:visible;fill:#FFFFFF;"/>
			<clipPath id="SVGID_10_">
				<use xlink:href="#SVGID_9_"  style="overflow:visible;"/>
			</clipPath>
			<path class="st4" d="M103.5,41.5c-0.5,0.3-1.5,0.6-2.5,0.6c-1.1,0-2.2-0.4-2.8-1.1c-0.6-0.6-1-1.5-1-3.3v-4h-1.8v-2.8h1.8v-2.8
				l3.4-0.6v3.4h2.9v2.8h-2.9v3.7c0,1.1,0.2,1.9,1.3,1.9c0.6,0,1.2-0.2,1.6-0.4V41.5z"/>
		</g>
		<g>
			<defs>
				<rect id="SVGID_11_" y="18.5" width="160" height="53"/>
			</defs>
			<use xlink:href="#SVGID_11_"  style="overflow:visible;fill:#FFFFFF;"/>
			<clipPath id="SVGID_12_">
				<use xlink:href="#SVGID_11_"  style="overflow:visible;"/>
			</clipPath>
			<path class="st5" d="M112.9,40.8c-0.8,0.7-1.9,1.3-3.3,1.3c-1.3,0-2.2-0.4-2.8-1.1c-0.7-0.7-1-1.7-1-3.4v-6.7h3.4v6.2
				c0,0.8,0.1,1.3,0.4,1.6s0.7,0.5,1.2,0.5c0.8,0,1.7-0.5,2.2-1v-7.3h3.4v10.9H113L112.9,40.8L112.9,40.8z"/>
		</g>
		<g>
			<defs>
				<rect id="SVGID_13_" y="18.5" width="160" height="53"/>
			</defs>
			<use xlink:href="#SVGID_13_"  style="overflow:visible;fill:#FFFFFF;"/>
			<clipPath id="SVGID_14_">
				<use xlink:href="#SVGID_13_"  style="overflow:visible;"/>
			</clipPath>
			<polygon class="st6" points="63.6,47.9 73.8,47.9 73.8,51 67.2,51 67.2,54.5 72.9,54.5 72.9,57.4 67.2,57.4 67.2,64 63.6,64 			
				"/>
		</g>
		<g>
			<defs>
				<rect id="SVGID_15_" y="18.5" width="160" height="53"/>
			</defs>
			<use xlink:href="#SVGID_15_"  style="overflow:visible;fill:#FFFFFF;"/>
			<clipPath id="SVGID_16_">
				<use xlink:href="#SVGID_15_"  style="overflow:visible;"/>
			</clipPath>
			<path class="st7" d="M75.8,53.1h3.4V64h-3.4V53.1z M77.4,47.7c1.1,0,2,0.9,2,1.9c0,1.1-0.9,1.9-2,1.9s-2-0.9-2-1.9
				C75.5,48.6,76.4,47.7,77.4,47.7"/>
		</g>
		<g>
			<defs>
				<rect id="SVGID_17_" y="18.5" width="160" height="53"/>
			</defs>
			<use xlink:href="#SVGID_17_"  style="overflow:visible;fill:#FFFFFF;"/>
			<clipPath id="SVGID_18_">
				<use xlink:href="#SVGID_17_"  style="overflow:visible;"/>
			</clipPath>
			<rect x="81.9" y="47" class="st8" width="3.4" height="17"/>
		</g>
		<g>
			<defs>
				<rect id="SVGID_19_" y="18.5" width="160" height="53"/>
			</defs>
			<use xlink:href="#SVGID_19_"  style="overflow:visible;fill:#FFFFFF;"/>
			<clipPath id="SVGID_20_">
				<use xlink:href="#SVGID_19_"  style="overflow:visible;"/>
			</clipPath>
			<path class="st9" d="M102.1,57.7c0-0.8-0.1-1.2-0.4-1.5s-0.7-0.5-1.2-0.5c-0.8,0-1.6,0.4-2.2,0.9c0,0.2,0,0.3,0,0.5V64h-3.4v-6.3
				c0-0.7-0.1-1.2-0.4-1.5s-0.7-0.5-1.2-0.5c-0.8,0-1.6,0.4-2.1,0.9V64H88V53.1h3.3v1l0,0c0.8-0.7,2-1.2,3.3-1.2
				c1.2,0,2.5,0.5,3.2,1.6c1.2-1,2.5-1.6,3.8-1.6c1.2,0,2.2,0.4,2.8,1.1c0.7,0.7,1,1.7,1,3.2V64H102L102.1,57.7L102.1,57.7z"/>
		</g>
		<g>
			<defs>
				<rect id="SVGID_21_" y="18.5" width="160" height="53"/>
			</defs>
			<use xlink:href="#SVGID_21_"  style="overflow:visible;fill:#FFFFFF;"/>
			<clipPath id="SVGID_22_">
				<use xlink:href="#SVGID_21_"  style="overflow:visible;"/>
			</clipPath>
			<path class="st10" d="M108.2,53.1h3.4V64h-3.4V53.1z M109.9,47.7c1.1,0,2,0.9,2,1.9c0,1.1-0.9,1.9-2,1.9s-2-0.9-2-1.9
				C107.9,48.6,108.8,47.7,109.9,47.7"/>
		</g>
		<g>
			<defs>
				<rect id="SVGID_23_" y="18.5" width="160" height="53"/>
			</defs>
			<use xlink:href="#SVGID_23_"  style="overflow:visible;fill:#FFFFFF;"/>
			<clipPath id="SVGID_24_">
				<use xlink:href="#SVGID_23_"  style="overflow:visible;"/>
			</clipPath>
			<path class="st11" d="M114.9,55.9h-1.6v-2.8h1.6v-1.6c0-1.5,0.3-2.8,1.2-3.6c0.8-0.8,2-1,3.1-1c0.6,0,1.3,0.1,1.9,0.3v2.7
				c-0.4-0.1-1.1-0.2-1.5-0.2c-1,0-1.3,0.7-1.3,1.6v1.8h2.5v2.8h-2.5V64h-3.4C114.9,64,114.9,55.9,114.9,55.9z"/>
		</g>
		<g>
			<defs>
				<rect id="SVGID_25_" y="18.5" width="160" height="53"/>
			</defs>
			<use xlink:href="#SVGID_25_"  style="overflow:visible;fill:#FFFFFF;"/>
			<clipPath id="SVGID_26_">
				<use xlink:href="#SVGID_25_"  style="overflow:visible;"/>
			</clipPath>
			<path class="st12" d="M127.9,61.3c1.5,0,2.7-1.2,2.7-2.8s-1.2-2.8-2.7-2.8s-2.7,1.2-2.7,2.8C125.2,60.1,126.3,61.3,127.9,61.3
				 M127.9,52.8c3.5,0,6.1,2.5,6.1,5.7s-2.6,5.7-6.1,5.7c-3.5,0-6.1-2.5-6.1-5.7C121.8,55.3,124.4,52.8,127.9,52.8"/>
		</g>
		<g>
			<defs>
				<rect id="SVGID_27_" y="18.5" width="160" height="53"/>
			</defs>
			<use xlink:href="#SVGID_27_"  style="overflow:visible;fill:#FFFFFF;"/>
			<clipPath id="SVGID_28_">
				<use xlink:href="#SVGID_27_"  style="overflow:visible;"/>
			</clipPath>
			<path class="st13" d="M136.1,53.1h3.3v1l0,0c0.8-0.7,2-1.3,3.4-1.3c1.2,0,2.2,0.4,2.9,1.1c0.7,0.7,1,1.7,1,3.2V64h-3.4v-6.3
				c0-0.8-0.1-1.2-0.4-1.5c-0.3-0.3-0.7-0.5-1.2-0.5c-0.9,0-1.7,0.4-2.3,0.9V64H136L136.1,53.1L136.1,53.1z"/>
		</g>
		<g>
			<defs>
				<rect id="SVGID_29_" y="18.5" width="160" height="53"/>
			</defs>
			<use xlink:href="#SVGID_29_"  style="overflow:visible;fill:#FFFFFF;"/>
			<clipPath id="SVGID_30_">
				<use xlink:href="#SVGID_29_"  style="overflow:visible;"/>
			</clipPath>
			<path class="st14" d="M156.6,56.1c-0.5-0.2-1.1-0.4-1.8-0.4c-1.8,0-2.7,1.3-2.7,3c0,1.6,0.9,2.9,2.6,2.9c0.7,0,1.4-0.2,1.9-0.6
				V56.1z M156.6,63.4c-0.7,0.5-1.7,0.8-2.8,0.8c-2.8,0-5.1-2.1-5.1-5.5s2.5-5.9,5.8-5.9c0.8,0,1.5,0.2,2.1,0.4l0,0V47h3.4v17h-3.3
				L156.6,63.4L156.6,63.4z"/>
		</g>
		<g>
			<defs>
				<rect id="SVGID_31_" y="18.5" width="160" height="53"/>
			</defs>
			<use xlink:href="#SVGID_31_"  style="overflow:visible;fill:#FFFFFF;"/>
			<clipPath id="SVGID_32_">
				<use xlink:href="#SVGID_31_"  style="overflow:visible;"/>
			</clipPath>
			<path class="st15" d="M81.6,39.1c-0.4,0.2-1,0.4-1.5,0.4c-0.8,0-1.4-0.4-1.4-1.1c0-0.8,0.9-1.1,1.7-1.1c0.4,0,0.8,0,1.2,0.2V38
				C81.6,38,81.6,39.1,81.6,39.1z M83.7,31.7c-0.9-0.7-2.2-1-3.6-1c-1.6,0-2.9,0.4-3.8,0.8v2.9c0.9-0.5,2-0.9,3.2-0.9
				c0.8,0,1.4,0.2,1.7,0.5c0.2,0.2,0.4,0.6,0.4,1.2v0.4c-0.6-0.1-1.2-0.2-1.9-0.2c-1.1,0-2.2,0.2-3.1,0.8c-0.8,0.5-1.3,1.4-1.3,2.6
				c0,1.1,0.5,2,1.3,2.6c0.7,0.5,1.6,0.7,2.5,0.7s1.8-0.2,2.5-0.6v0.3H85v-7.1C84.9,33.3,84.5,32.4,83.7,31.7"/>
		</g>
	</g>
</g>
</svg>
